<svg width="40" height="40" viewBox="0 0 40 40" fill="none" xmlns="http://www.w3.org/2000/svg">
<path d="M16.775 20.8217L6.475 23.0183C6.0752 23.1051 5.65731 23.031 5.31173 22.812C4.96614 22.5931 4.72064 22.2469 4.62833 21.8483L3.73333 18.265C3.62811 17.8333 3.68786 17.3778 3.90089 16.9878C4.11391 16.5978 4.46486 16.3014 4.885 16.1567L27.3917 8.75667" stroke="white" style="stroke:white;stroke-opacity:1;" stroke-width="3.33333" stroke-linecap="round" stroke-linejoin="round"/>
<path d="M22.6 19.5783L29.82 18.0383" stroke="white" style="stroke:white;stroke-opacity:1;" stroke-width="3.33333" stroke-linecap="round" stroke-linejoin="round"/>
<path d="M26.6667 35L21.4917 24.65" stroke="white" style="stroke:white;stroke-opacity:1;" stroke-width="3.33333" stroke-linecap="round" stroke-linejoin="round"/>
<path d="M27.475 9.9C27.2607 9.04247 27.3959 8.13496 27.8506 7.37704C28.3054 6.61911 29.0425 6.07283 29.9 5.85833L31.7167 5.405C32.1452 5.2981 32.5986 5.36566 32.9774 5.59285C33.3561 5.82004 33.6292 6.18827 33.7367 6.61667L36.2617 16.7167C36.3691 17.1454 36.3017 17.5993 36.0745 17.9784C35.8473 18.3576 35.4788 18.6309 35.05 18.7383L33.2333 19.1917C32.3758 19.4059 31.4683 19.2708 30.7104 18.816C29.9524 18.3613 29.4062 17.6241 29.1917 16.7667L27.475 9.9Z" stroke="white" style="stroke:white;stroke-opacity:1;" stroke-width="3.33333" stroke-linecap="round" stroke-linejoin="round"/>
<path d="M10.2633 14.3883L12.12 21.815" stroke="white" style="stroke:white;stroke-opacity:1;" stroke-width="3.33333" stroke-linecap="round" stroke-linejoin="round"/>
<path d="M13.3333 35L18.5083 24.65" stroke="white" style="stroke:white;stroke-opacity:1;" stroke-width="3.33333" stroke-linecap="round" stroke-linejoin="round"/>
<path d="M20 25C21.8409 25 23.3333 23.5076 23.3333 21.6667C23.3333 19.8257 21.8409 18.3333 20 18.3333C18.159 18.3333 16.6667 19.8257 16.6667 21.6667C16.6667 23.5076 18.159 25 20 25Z" stroke="white" style="stroke:white;stroke-opacity:1;" stroke-width="3.33333" stroke-linecap="round" stroke-linejoin="round"/>
</svg>
